<svg fill="#FFFFFF" xmlns="http://www.w3.org/2000/svg"  viewBox="0 0 24 24" width="24px" height="24px"><path d="M 7.96875 2.9257812 C 5.2346 2.9257812 3 5.1754233 3 7.9140625 L 3 15.935547 C 3 18.674941 5.2346 20.925781 7.96875 20.925781 L 16.03125 20.925781 C 18.7654 20.925781 21 18.674941 21 15.935547 L 21 7.9140625 C 21 5.1754233 18.764649 2.9257812 16.03125 2.9257812 L 7.96875 2.9257812 z M 7.96875 4.9257812 L 16.03125 4.9257812 C 17.673851 4.9257813 19 6.2547017 19 7.9140625 L 19 15.935547 C 19 17.596153 17.6751 18.925781 16.03125 18.925781 L 7.96875 18.925781 C 6.3249 18.925781 5 17.596153 5 15.935547 L 5 7.9140625 C 5 6.2547017 6.3249 4.9257814 7.96875 4.9257812 z M 13.162109 8.234375 C 12.018857 8.2500312 10.873375 8.6138594 10.140625 9.2558594 L 10.140625 8.296875 L 7.6972656 8.296875 L 7.6972656 15.691406 L 10.140625 15.691406 L 10.140625 13.486328 C 10.315625 13.683328 10.660781 13.897094 11.175781 14.121094 C 13.313781 15.062094 16.9015 14.337 16.9375 11.375 C 16.965625 9.14875 15.067529 8.2082813 13.162109 8.234375 z"/></svg>